<svg enable-background="new 0 0 652 652" viewBox="0 0 652 652" xmlns="http://www.w3.org/2000/svg"><g fill="#2f343d"><path d="m324.8 640.4c-174.4 0-316.2-141.8-316.2-316.2 0-67.8 25.1-141.6 67.1-197.3l10.4 7.8c-40.4 53.6-64.5 124.4-64.5 189.5 0 167.2 136 303.2 303.2 303.2s303.2-136 303.2-303.2-136-303.2-303.2-303.2c-62.3 0-122.2 18.8-173.2 54.3l-7.4-10.7c53.1-37 115.6-56.6 180.6-56.6 174.4 0 316.2 141.9 316.2 316.2s-141.8 316.2-316.2 316.2z"/><path d="m111.2 149.3c-28.1 0-50.9-22.8-50.9-50.9s22.8-50.9 50.9-50.9 50.9 22.8 50.9 50.9-22.8 50.9-50.9 50.9zm0-88.8c-20.9 0-37.9 17-37.9 37.9s17 37.9 37.9 37.9 37.9-17 37.9-37.9-17-37.9-37.9-37.9z"/><path d="m324.8 572.5c-136.9 0-248.3-111.4-248.3-248.3s111.4-248.3 248.3-248.3 248.3 111.4 248.3 248.3c0 47.7-13.5 94-39.2 133.9l-11-7c24.3-37.8 37.1-81.7 37.1-126.9 0-129.7-105.5-235.3-235.3-235.3-129.7 0-235.3 105.5-235.3 235.3s105.5 235.3 235.3 235.3c58.6 0 114.8-21.7 158.2-61.1l8.8 9.6c-45.7 41.6-105 64.5-166.9 64.5z"/><path d="m507.4 519.2c-20.8 0-37.8-17-37.8-37.8s17-37.8 37.8-37.8 37.8 17 37.8 37.8-16.9 37.8-37.8 37.8zm0-62.6c-13.7 0-24.8 11.1-24.8 24.8s11.1 24.8 24.8 24.8 24.8-11.1 24.8-24.8-11.1-24.8-24.8-24.8z"/><path d="m324.8 484.4c-88.3 0-160.1-71.8-160.1-160.1s71.8-160.1 160.1-160.1 160.1 71.8 160.1 160.1-71.8 160.1-160.1 160.1zm0-307.3c-81.1 0-147.1 66-147.1 147.1s66 147.1 147.1 147.1 147.1-66 147.1-147.1-66-147.1-147.1-147.1z"/><path d="m391.6 270.2c-1.6 0-3.3-.6-4.5-1.8l-93.6-90.8c-2.6-2.5-2.6-6.6-.1-9.2s6.6-2.6 9.2-.1l93.6 90.8c2.6 2.5 2.6 6.6.1 9.2-1.3 1.2-3 1.9-4.7 1.9z"/><path d="m465.6 392.2c-1.6 0-3.3-.6-4.5-1.8l-55.4-53.7c-2.6-2.5-2.6-6.6-.1-9.2s6.6-2.6 9.2-.1l55.4 53.7c2.6 2.5 2.6 6.6.1 9.2-1.3 1.3-3 1.9-4.7 1.9z"/><path d="m370.4 349.3c-1.6 0-3.3-.6-4.5-1.8l-63.4-61.5c-2.6-2.5-2.6-6.6-.1-9.2s6.6-2.6 9.2-.1l63.4 61.5c2.6 2.5 2.6 6.6.1 9.2-1.3 1.2-3 1.9-4.7 1.9z"/><path d="m388.9 462.2c-1.6 0-3.3-.6-4.5-1.8l-93.6-90.8c-2.6-2.5-2.6-6.6-.1-9.2s6.6-2.6 9.2-.1l93.6 90.8c2.6 2.5 2.6 6.6.1 9.2-1.3 1.2-3 1.9-4.7 1.9z"/><path d="m254.6 298.1c-1.6 0-3.3-.6-4.5-1.8l-33.2-32.2c-2.6-2.5-2.6-6.6-.1-9.2s6.6-2.6 9.2-.1l33.2 32.2c2.6 2.5 2.6 6.6.1 9.2-1.3 1.3-3 1.9-4.7 1.9z"/><path d="m268.5 432c-1.6 0-3.3-.6-4.5-1.8l-94.1-91.3c-2.6-2.5-2.6-6.6-.1-9.2s6.6-2.6 9.2-.1l94.1 91.3c2.6 2.5 2.6 6.6.1 9.2-1.3 1.2-3 1.9-4.7 1.9z"/></g></svg>